{"title":"Mr Nice 2010 LiMiTED.720p.BRRip.x264.Feel-Free","uid":6138487,"size":2429943415,"categoryP":"video","categoryS":"hd___movies","magnet":"?xt=urn:btih:d8d0d99ef1164fef98394be7d55ed2c0bf62b613&amp;dn=Mr+Nice+2010+LiMiTED.720p.BRRip.x264.Feel-Free&amp;tr=udp%3A%2F%2Ftracker.openbittorrent.com%3A80&amp;tr=udp%3A%2F%2Fopen.demonii.com%3A1337&amp;tr=udp%3A%2F%2Ftracker.coppersurfer.tk%3A6969&amp;tr=udp%3A%2F%2Fexodus.desync.com%3A6969","seeders":1,"leechers":0,"uploader":"neon","files":-1,"time":1296404620,"description":"Genre: Comedy | Drama\nLanguage:English\n &lt;a href=&quot; http://www.imdb.com/title/tt1183911/&quot; rel=&quot;nofollow&quot; target=&quot;_NEW&quot;&gt; http://www.imdb.com/title/tt1183911/&lt;/a&gt;\nSource:BluRay x264-AVCHD\n\n\nFormat : MPEG-4\nFormat profile : Base Media\nCodec ID : isom\nFile size : 2.26 GiB\nDuration : 2h 0mn\nOverall bit rate : 2 673 Kbps\nMovie name : Mr.Nice.2010.LiMiTED.720p.BRRip.x264.Feel-Free\n\n\nVideo\nFormat settings, CABAC : Yes\nFormat settings, ReFrames : 4 frames\nFormat settings, GOP : M=1, N=16\nCodec ID : avc1\nCodec ID/Info : Advanced Video Coding\nDuration : 2h 0mn\nBit rate mode : Variable\nBit rate : 2 300 Kbps\nWidth : 1 280 pixels\nHeight : 688 pixels\nDisplay aspect ratio : 1.860\nFrame rate mode : Constant\nFrame rate : 23.976 fps\nColor space : YUV\nChroma subsampling : 4:2:0\nBit depth : 8 bits\nScan type : Progressive\nBits/(Pixel*Frame) : 0.109\nStream size : 1.93 GiB (85%)\nWriting library : x264\n\nAudio\nID : 2\nFormat : AAC\nFormat/Info : Advanced Audio Codec\nFormat version : Version 4\nFormat profile : LC\nCodec ID : 40\nDuration : 2h 0mn\nBit rate mode : Variable\nBit rate : 384 Kbps\nChannel(s) : 6 channels\nChannel positions : Front: L C R, Side: L R, LFE\nSampling rate : 48.0 KHz\nStream size : 332 MiB (14%)\n\n\n\nPlot:\nThe life story of Howard Marks, an elite British drug smuggler.\n &lt;a href=&quot;\nhttp://rapidhdd.com/images/563848vlcsnap-00001.png&quot; rel=&quot;nofollow&quot; target=&quot;_NEW&quot;&gt;\nhttp://rapidhdd.com/images/563848vlcsnap-00001.png&lt;/a&gt; &lt;a href=&quot;\nhttp://www.rapidhdd.com/images/567023vlcsnap-00004.png&quot; rel=&quot;nofollow&quot; target=&quot;_NEW&quot;&gt;\nhttp://www.rapidhdd.com/images/567023vlcsnap-00004.png&lt;/a&gt; &lt;a href=&quot;\nhttp://www.rapidhdd.com/images/947791vlcsnap-00003.png&quot; rel=&quot;nofollow&quot; target=&quot;_NEW&quot;&gt;\nhttp://www.rapidhdd.com/images/947791vlcsnap-00003.png&lt;/a&gt; &lt;a href=&quot;\nhttp://www.rapidhdd.com/images/889883vlcsnap-00002.png&quot; rel=&quot;nofollow&quot; target=&quot;_NEW&quot;&gt;\nhttp://www.rapidhdd.com/images/889883vlcsnap-00002.png&lt;/a&gt;","torrent":{"xt":"urn:btih:d8d0d99ef1164fef98394be7d55ed2c0bf62b613","amp;dn":"Mr+Nice+2010+LiMiTED.720p.BRRip.x264.Feel-Free","amp;tr":["udp%3A%2F%2Ftracker.openbittorrent.com%3A80","udp%3A%2F%2Fopen.demonii.com%3A1337","udp%3A%2F%2Ftracker.coppersurfer.tk%3A6969","udp%3A%2F%2Fexodus.desync.com%3A6969"],"infoHash":"d8d0d99ef1164fef98394be7d55ed2c0bf62b613","infoHashBuffer":{"type":"Buffer","data":[216,208,217,158,241,22,79,239,152,57,75,231,213,94,210,192,191,98,182,19]},"announce":[],"urlList":[]}}